<?xml version="1.0" encoding="utf-8"?>
<!-- Generator: Adobe Illustrator 19.0.0, SVG Export Plug-In . SVG Version: 6.00 Build 0)  -->
<svg version="1.1" id="Warstwa_1" xmlns="http://www.w3.org/2000/svg" xmlns:xlink="http://www.w3.org/1999/xlink" x="0px" y="0px"
	 viewBox="0 0 750 405" style="enable-background:new 0 0 750 405;" xml:space="preserve">
<style type="text/css">
	.st0{fill:#FFFFFF;}
	.st1{fill:#D5EFFA;}
	.st2{fill:url(#XMLID_48_);}
	.st3{fill:url(#XMLID_67_);}
	.st4{fill:url(#XMLID_68_);}
	.st5{fill:url(#XMLID_69_);}
	.st6{fill:url(#XMLID_70_);}
	.st7{fill:url(#XMLID_71_);}
	.st8{fill:url(#XMLID_72_);}
	.st9{fill:url(#XMLID_74_);}
	.st10{fill:url(#XMLID_76_);}
	.st11{fill:url(#XMLID_77_);}
	.st12{fill:url(#XMLID_78_);}
	.st13{fill:url(#XMLID_79_);}
	.st14{fill:url(#XMLID_80_);}
	.st15{fill:url(#XMLID_81_);}
	.st16{fill:url(#XMLID_82_);}
	.st17{fill:url(#XMLID_83_);}
	.st18{fill:url(#XMLID_84_);}
	.st19{fill:url(#XMLID_85_);}
	.st20{fill:url(#XMLID_86_);}
	.st21{fill:#004B4F;}
	.st22{fill:url(#XMLID_87_);}
	.st23{fill:url(#XMLID_88_);}
	.st24{fill:url(#XMLID_89_);}
	.st25{fill:url(#XMLID_90_);}
	.st26{fill:url(#XMLID_91_);}
	.st27{fill:url(#XMLID_92_);}
	.st28{fill:url(#XMLID_93_);}
	.st29{fill:url(#XMLID_94_);}
	.st30{fill:url(#XMLID_95_);}
	.st31{fill:url(#XMLID_96_);}
	.st32{fill:url(#XMLID_97_);}
	.st33{fill:url(#XMLID_98_);}
	.st34{fill:url(#XMLID_99_);}
	.st35{fill:url(#XMLID_100_);}
	.st36{fill:url(#XMLID_101_);}
	.st37{fill:url(#XMLID_102_);}
	.st38{fill:url(#XMLID_103_);}
	.st39{fill:url(#XMLID_104_);}
	.st40{fill:url(#XMLID_105_);}
	.st41{fill:url(#XMLID_106_);}
	.st42{fill:url(#XMLID_107_);}
	.st43{fill:url(#XMLID_108_);}
	.st44{fill:url(#XMLID_109_);}
	.st45{fill:url(#XMLID_110_);}
	.st46{fill:url(#XMLID_111_);}
	.st47{fill:url(#XMLID_112_);}
	.st48{fill:url(#XMLID_113_);}
	.st49{fill:url(#XMLID_114_);}
	.st50{fill:url(#XMLID_115_);}
	.st51{fill:url(#XMLID_116_);}
	.st52{fill:url(#XMLID_117_);}
	.st53{fill:url(#XMLID_118_);}
	.st54{fill:url(#XMLID_119_);}
	.st55{fill:url(#XMLID_120_);}
	.st56{fill:url(#XMLID_121_);}
	.st57{fill:url(#XMLID_122_);}
	.st58{fill:#FEA305;}
	.st59{fill:url(#XMLID_123_);}
	.st60{fill:url(#XMLID_124_);}
	.st61{fill:url(#XMLID_125_);}
</style>
<rect id="XMLID_75_" class="st0" width="750" height="405"/>
<path id="XMLID_65_" class="st1" d="M678.2,322.7c-73.9,82-195,103.8-292.6,51.8c-41.1-21.9-76.4-56.1-85.7-109.5
	C274.2,118.6,424.6,99,491,106.9c31.7,3.8,49.5-15.4,67.3-38.3c23-29.6,58.5-64,98.2-42.8c23.1,12.4,40.6,35,53.1,57.5
	c36.6,66.2,33,147-8.6,210C694.1,303.8,686.5,313.5,678.2,322.7z"/>
<linearGradient id="XMLID_48_" gradientUnits="userSpaceOnUse" x1="440.3478" y1="1120.9579" x2="439.1613" y2="1085.8077" gradientTransform="matrix(0.7397 -0.3672 0.4258 0.8577 -365.4324 -458.645)">
	<stop  offset="5.376340e-003" style="stop-color:#FED905"/>
	<stop  offset="1" style="stop-color:#FEA305"/>
</linearGradient>
<path id="XMLID_64_" class="st2" d="M437.6,315.9c0,0-7.1,9.1-7.5,10.2c-0.4,1-1.5,2.6-1.6,6.4c-0.1,3.7-1.7,6.8-2.2,8.8
	c-0.6,2-1.7,3.5-1.4,4.2c0.3,0.7,2.5,2.4,5.3,0.7c2.8-1.7,3.3-4,3.5-5.4c0.2-1.4,1.5-5.6,2.5-8c1-2.4,2.4-3.4,3.2-4.3
	c0.7-0.9,3.8-5.1,3.8-5.1L437.6,315.9z"/>
<linearGradient id="XMLID_67_" gradientUnits="userSpaceOnUse" x1="247.1319" y1="886.371" x2="245.946" y2="851.2394" gradientTransform="matrix(0.9441 -0.3297 0.3297 0.9441 -97.3137 -417.2224)">
	<stop  offset="5.376340e-003" style="stop-color:#FED905"/>
	<stop  offset="1" style="stop-color:#FEA305"/>
</linearGradient>
<path id="XMLID_63_" class="st3" d="M433.3,311.4c0,0-10.2,9.1-10.8,10.2c-0.7,1-2.3,2.7-3.2,6.6c-0.9,4-3.3,7.1-4.4,9.1
	c-1.1,2-2.7,3.5-2.5,4.3c0.2,0.8,2.5,2.8,6.1,1.2c3.6-1.6,4.7-4,5.2-5.5c0.6-1.5,2.9-5.9,4.6-8.3c1.7-2.4,3.6-3.4,4.6-4.4
	c1-0.9,5.5-5.1,5.5-5.1L433.3,311.4z"/>
<linearGradient id="XMLID_68_" gradientUnits="userSpaceOnUse" x1="343.9366" y1="634.601" x2="342.6568" y2="596.6859" gradientTransform="matrix(0.9838 -0.1794 0.1794 0.9838 -34.1118 -228.5941)">
	<stop  offset="5.376340e-003" style="stop-color:#FED905"/>
	<stop  offset="1" style="stop-color:#FEA305"/>
</linearGradient>
<path id="XMLID_62_" class="st4" d="M428,306.4c0,0-12.4,8-13.3,9c-0.9,1-2.9,2.4-4.5,6.5s-4.8,7-6.2,9c-1.5,2-3.5,3.3-3.4,4.2
	c0.1,0.9,2.2,3.4,6.3,2.3c4.1-1.1,5.6-3.5,6.5-5c0.9-1.5,4.1-5.8,6.3-8.1c2.2-2.3,4.4-3.1,5.6-3.9c1.3-0.8,6.7-4.5,6.7-4.5
	L428,306.4z"/>
<linearGradient id="XMLID_69_" gradientUnits="userSpaceOnUse" x1="410.9912" y1="323.8694" x2="409.8043" y2="288.7066">
	<stop  offset="5.376340e-003" style="stop-color:#FED905"/>
	<stop  offset="1" style="stop-color:#FEA305"/>
</linearGradient>
<path id="XMLID_61_" class="st5" d="M424.6,300.3c0,0-12.6,5.3-13.6,6c-1,0.8-3.1,1.7-5.2,5.2c-2.1,3.4-5.5,5.6-7.2,7.2
	c-1.7,1.6-3.8,2.4-3.8,3.2c0,0.8,1.4,3.4,5.3,3.1s5.7-2.3,6.8-3.4c1-1.2,4.7-4.6,7.1-6.3c2.4-1.7,4.5-2.1,5.8-2.6
	c1.3-0.5,6.8-3,6.8-3L424.6,300.3z"/>
<linearGradient id="XMLID_70_" gradientUnits="userSpaceOnUse" x1="441.6815" y1="331.6656" x2="444.4904" y2="308.8122">
	<stop  offset="5.376340e-003" style="stop-color:#FED905"/>
	<stop  offset="1" style="stop-color:#FEA305"/>
</linearGradient>
<path id="XMLID_60_" class="st6" d="M423.3,297.8c-0.3,4.1-1,9.1,5.3,17.4c6.3,8.3,7.2,10.5,10.9,10.9c3.7,0.4,10.1,1.8,17.3,0
	c7.2-1.9,8.8-5.1,8.8-5.1l-2.1-23.1H423.3z"/>
<linearGradient id="XMLID_71_" gradientUnits="userSpaceOnUse" x1="490.7599" y1="284.6903" x2="605.1518" y2="324.9401">
	<stop  offset="0" style="stop-color:#FFD8C2"/>
	<stop  offset="1" style="stop-color:#FFB49C"/>
</linearGradient>
<path id="XMLID_59_" class="st7" d="M568.1,274.2c0,0-14.6,13.3-18.7,14.3s-68.2,5.1-68.2,5.1v25.5c0,0,51,4.1,64.4,4.8
	s22.6,0.3,28.5-4.1c5.9-4.3,20.8-17.6,20.8-17.6L568.1,274.2z"/>
<linearGradient id="XMLID_72_" gradientUnits="userSpaceOnUse" x1="473.7385" y1="279.3441" x2="473.7385" y2="336.1326">
	<stop  offset="5.376340e-003" style="stop-color:#FED905"/>
	<stop  offset="1" style="stop-color:#FEA305"/>
</linearGradient>
<path id="XMLID_58_" class="st8" d="M485.1,288.4c-2.6-0.3-19.9,2.5-21.6,2.5c-1.7,0-3.9,0.5-3.9,3.7c0,3.1,1.2,18,1.7,23.2
	c0.5,5.3,1.4,6,2.7,6.4c1.4,0.5,11.6,1.7,16.5,1.8c4.9,0.1,7.5,0.1,7.5-2.6C488,320.9,487.6,288.7,485.1,288.4z"/>
<linearGradient id="XMLID_74_" gradientUnits="userSpaceOnUse" x1="432.3787" y1="309.4291" x2="431.3574" y2="279.1719">
	<stop  offset="5.376340e-003" style="stop-color:#FED905"/>
	<stop  offset="1" style="stop-color:#FEA305"/>
</linearGradient>
<path id="XMLID_57_" class="st9" d="M461.5,303.3c-6.5,4.3-9.5,8.2-22.1,5.4c-12.6-2.8-13.3-8-16.5-7.4c-3.2,0.6-7.6,3.2-12.7,2.7
	s-9.6-3.4-7.1-5.5c2.6-2,5.8-3.2,10.1-5.2c4.4-2,6.3-3.4,11-3.4c4.7,0,13.6,1.3,20.6,0.8c7.1-0.5,11.8-1.1,13.2-0.8
	c1.4,0.4,3.3,2.7,3.3,2.7V303.3z"/>
<linearGradient id="XMLID_76_" gradientUnits="userSpaceOnUse" x1="562.3538" y1="225.4146" x2="692.4188" y2="309.7356">
	<stop  offset="0" style="stop-color:#444F61"/>
	<stop  offset="1" style="stop-color:#262C36"/>
</linearGradient>
<path id="XMLID_56_" class="st10" d="M606.9,215.3c0,0-9.5,7.8-15.9,13.3c-6.4,5.5-9.9,8.6-14.4,18.5c-4.5,10-8.1,19.7-11.5,22.7
	c-3.5,3.1-4.6,4-4.1,6c0.5,2,6,11.2,18.5,22s16.9,10,18.2,9.3s6-7.8,6-7.8l19.9,50.1h94.9c0,0-0.5-23,0-43.1
	c0.5-20.2,5.6-56.9-17.4-74.3s-45.7-28.1-45.7-28.1L606.9,215.3z"/>
<linearGradient id="XMLID_77_" gradientUnits="userSpaceOnUse" x1="632.9106" y1="221.0764" x2="624.2295" y2="180.224">
	<stop  offset="0" style="stop-color:#FFD8C2"/>
	<stop  offset="1" style="stop-color:#FFB49C"/>
</linearGradient>
<path id="XMLID_55_" class="st11" d="M612,195.7c0,0,0.7,10.1,0,13s-5.5,6.5-5.9,7.5c-0.4,1-0.8,17.5,15.2,18.5
	c24.4,1.5,35.9-27.4,34.8-29.9c-1.1-2.5-8.8-5.7-10.8-12.1s-2.8-18.2-2.8-18.2h-30.9L612,195.7z"/>
<linearGradient id="XMLID_78_" gradientUnits="userSpaceOnUse" x1="627.0028" y1="202.6599" x2="621.6705" y2="177.5663">
	<stop  offset="0" style="stop-color:#FFD8C2"/>
	<stop  offset="1" style="stop-color:#FFB49C"/>
</linearGradient>
<path id="XMLID_54_" class="st12" d="M643.8,185.7c-0.9-5.5-1.3-11.1-1.3-11.1h-30.9l0.3,21.1c0,0,0.7,10.1,0,13
	c-0.4,1.8-2.5,3.9-4,5.4C623.7,211.9,638.3,202.1,643.8,185.7z"/>
<linearGradient id="XMLID_79_" gradientUnits="userSpaceOnUse" x1="573.4273" y1="143.4759" x2="661.0668" y2="174.3127">
	<stop  offset="0" style="stop-color:#FFD8C2"/>
	<stop  offset="1" style="stop-color:#FFB49C"/>
</linearGradient>
<path id="XMLID_53_" class="st13" d="M575.4,123.8c-4.4,13.6-3.9,23.1-2.9,31.1s2,12.5,1.6,18.7c-0.4,6.3,1.3,16.2,7.5,23.6
	c6.2,7.4,10.4,13,16.8,13c12.4,0,26.8-11.2,33.3-17.9s8.2-14.3,8.2-14.3s14-7.8,14.5-34.4s-20.4-42-39.7-42
	C593.9,101.7,579.5,111.2,575.4,123.8z"/>
<linearGradient id="XMLID_80_" gradientUnits="userSpaceOnUse" x1="592" y1="100.5534" x2="636.3473" y2="161.6171">
	<stop  offset="0" style="stop-color:#8C6F5A"/>
	<stop  offset="1" style="stop-color:#5C3D3B"/>
</linearGradient>
<path id="XMLID_52_" class="st14" d="M624.4,137.3c-1.6-2.8-5.8-7.3-12.4-5.9c-6.7,1.4-21.2,10.3-30,10s-12.3-2.3-17-5.9
	s-7.2-10.3-6.1-10.3c1.1,0,5.4-0.6,7.7-1.5c-4-2-6.9-9.4-6-9.9c0.9-0.5,7.6,0.8,15.9-6.8c8.3-7.6,17.1-14.8,36.1-15.3
	c19-0.5,28.6,5.1,33.4,10.4c5.9,6.6,7.5,14,7.5,14s10.9,6,8.9,26.6c-2,20.7-9.7,29.1-14.6,33.8l-7.7-20.4c0,0-1.8,8.5-2.6,9.6
	c-0.8,1.1-4.4,1.2-4.4,0s0-8.6,0-10.2s-1.1-3.7-2-4.3s-5-1.9-5-3.7C626,145.1,625.7,139.5,624.4,137.3z"/>
<linearGradient id="XMLID_81_" gradientUnits="userSpaceOnUse" x1="574.5139" y1="140.5476" x2="662.0892" y2="171.3618">
	<stop  offset="0" style="stop-color:#FFD8C2"/>
	<stop  offset="1" style="stop-color:#FFB49C"/>
</linearGradient>
<path id="XMLID_51_" class="st15" d="M640.1,156c0,0,0.9-5.6,4.6-5.8c3.7-0.2,9.9,1.6,9.7,12.6c-0.3,11-7.9,17.5-14.9,16.5
	L640.1,156z"/>
<linearGradient id="XMLID_82_" gradientUnits="userSpaceOnUse" x1="662.6843" y1="196.4348" x2="662.6843" y2="261.5085">
	<stop  offset="5.376340e-003" style="stop-color:#FED905"/>
	<stop  offset="1" style="stop-color:#FEA305"/>
</linearGradient>
<path id="XMLID_50_" class="st16" d="M651,250c0,0,2.2-26.7,11.7-42.4c0,0,0.6-1.1,1.9-0.5c1.4,0.6,8.3,4.4,9.1,5
	c0.9,0.6,0.7,2.1,0.7,2.1s-8.1,18.4-8.4,35.8H651z"/>
<linearGradient id="XMLID_83_" gradientUnits="userSpaceOnUse" x1="600.3782" y1="207.5176" x2="600.3782" y2="264.3964">
	<stop  offset="5.376340e-003" style="stop-color:#FED905"/>
	<stop  offset="1" style="stop-color:#FEA305"/>
</linearGradient>
<path id="XMLID_49_" class="st17" d="M606,250.3c0,0-4.2-17.2-1.6-33c0,0-0.6-1-1.4-0.6c-0.9,0.4-6.4,5.5-7,6.4
	c-0.5,0.9-0.8,1.9-0.8,1.9s-1.8,18,2.3,29.4L606,250.3z"/>
<linearGradient id="XMLID_84_" gradientUnits="userSpaceOnUse" x1="659.99" y1="207.3654" x2="659.99" y2="447.5417">
	<stop  offset="5.376340e-003" style="stop-color:#FED905"/>
	<stop  offset="1" style="stop-color:#FEA305"/>
</linearGradient>
<path id="XMLID_73_" class="st18" d="M724,349.3V405H608c0.5-4.2,1.1-8.5,1.6-12.9c1.1-9.2,2.2-18.6,3-26.9
	c1.2-11.9,1.7-21.7,1.2-25.6c-0.4-2.8-1.4-6.3-2.6-10.4c-0.2-0.7-0.4-1.3-0.6-2c-2.3-7.2-5.5-16-8.2-25.8c-3.4-12.1-6.2-25.8-6.2-40
	c0-2,0-5.5,1-8.5v0c1-2.8,3.5-5.2,8.4-5.4c0.2,0,0.4,0,0.6,0c8.6,0,32.2-1.1,45.4-1.5c3.4-0.1,6-0.2,7.6-0.2c3.6,0,5.8,0.3,7.1,1.4
	c1.5,1.2,1.9,3.3,2.3,7.1c0,0.3,0.1,0.6,0.1,0.9c0.4,4.1,1.1,13.4,3.8,24.3c2.6,10.9,7.1,23.4,14.9,34c2.6,3.6,5.2,6.7,7.8,9.3
	c10.8,11.4,19.9,14.4,23.2,15.6c0.4,0.2,1,0.3,1.2,0.4C721.9,340.2,724,343.9,724,349.3z"/>
<linearGradient id="XMLID_85_" gradientUnits="userSpaceOnUse" x1="600.9507" y1="255.3846" x2="606.3302" y2="258.4838">
	<stop  offset="0" style="stop-color:#FFFFFF"/>
	<stop  offset="1" style="stop-color:#CED2F7"/>
</linearGradient>
<ellipse id="XMLID_47_" class="st19" cx="603.5" cy="256.9" rx="3.7" ry="3.7"/>
<linearGradient id="XMLID_86_" gradientUnits="userSpaceOnUse" x1="655.5372" y1="252.832" x2="660.9167" y2="255.9312">
	<stop  offset="0" style="stop-color:#FFFFFF"/>
	<stop  offset="1" style="stop-color:#CED2F7"/>
</linearGradient>
<ellipse id="XMLID_46_" class="st20" cx="658.1" cy="254.3" rx="3.7" ry="3.7"/>
<path id="XMLID_45_" class="st21" d="M444.8,380.7c0,0,4.8-20.4,5.6-34.3c0.9-14,0.2-53-1.6-59.7c-1.8-6.8-1.9-15-4-21.1
	c-2.1-6.1-6.6-17.1-10.8-22.7c-4.2-5.6-16.3-32.2-20-36.5c-3.7-4.3-4.7-8.1-4.7-13.7c0-5.7,0.1-38.5,0-43.4s-0.8-11-0.8-16
	s-0.5-19.9,1.4-27.4c1.9-7.5-0.2-13.1-0.3-18.9s1.5-18.5,1.5-18.5l1.5,5.4c0,0-1.5,8.8-0.9,13.6c0.7,4.8,1.5,10.7,1.5,16.2
	s-1.5,7.3-1.2,16.3s0.7,19.6,1.2,25c0.5,5.4,0.5,25.5,1,32.3c0.5,6.8,0,14.3,3.2,21.8c3.2,7.5,8.1,15.8,13.3,24.3s14,24.8,16.8,29.3
	s4.3,6,4.9,11.1c0.6,5.1,5.2,18.4,5.6,25c0.4,6.6,1.5,16.3,1.5,25.4c0,9.1,0.7,21.7,1.9,30.9c1.2,9.2,5,23.6,4.6,35.7H444.8z"/>
<path id="XMLID_44_" class="st21" d="M411.7,203c-5-5.3-7.5-12-9.1-14.4s-7.2-8.2-7.7-9.2c-0.5-1-3.1-15.7-3.6-18
	c-0.5-2.4-2.4-11.2-3.6-15.8c-1.2-4.6-2.6-13.7-3.8-19.8s-2.6-11.4-2.6-11.4l1.2,0.8c0,0,3.1,9.2,3.3,10.7
	c0.3,1.5,2.1,11.2,2.8,13.5c0.8,2.3,2.1,4.7,2.6,7.5c0.5,2.8,1.5,12.1,3.1,16c1.5,3.8,3.3,11.9,4.9,15.2c1.5,3.3,3.6,4.8,4.7,5.9
	s7.7,9.3,7.7,9.3V203z"/>
<path id="XMLID_43_" class="st21" d="M412.7,178.9c0,0,3.8-11.9,6.7-17.9s3.2-10,5.6-15.8c2.4-5.8,5.8-10.7,6.2-16.3
	c0.3-5.6,1.9-18.5,1.9-18.5l-2.4,1.4c0,0-0.9,14-1.7,17.5c-0.9,3.6-5.1,13.1-7.3,16.7c-2.2,3.6-9.9,22.1-9.9,22.1L412.7,178.9z"/>
<path id="XMLID_42_" class="st21" d="M456.6,293.6c0,0,8.3-17.7,9.5-24c1.2-6.3,4-20.1,9.1-29.6c5.1-9.5,10.2-19.3,13.5-25.2
	c3.2-5.9,10.4-14.3,11.8-18.4c1.4-4.1,3.6-19.1,5.5-23.7c1.9-4.6,4.3-16.2,4.3-16.2l-1.9,2.1c0,0-4.6,13.4-6,16.8
	c-1.4,3.4-3.9,17.4-5.5,21.1s-9.1,13.4-11.6,14.8c-2.6,1.4-2.9,4.9-3.4,6.8s-8.9,17.7-11.6,22.3c-2.7,4.6-7.7,11.4-8.2,12.8
	c-0.5,1.4-4.1,21.6-8.4,28.8L456.6,293.6z"/>
<path id="XMLID_41_" class="st21" d="M468.4,247.8c0,0,0.3-15.7-0.9-23.3c-1.2-7.6-4.3-16.9-4.1-21.5c0.2-4.7,0.8-13,1.2-18.4
	c0.5-5.4,1.4-12.1,1.3-16c-0.1-3.9,0-11.9,0-11.9l1.3,2.1c0,0-0.2,8.2,0,10.6c0.1,2.4,0.6,14,0.1,15.6c-0.5,1.5-1.9,16.2-1.3,19.7
	c0.6,3.4,4.9,16,5.5,20c0.6,4,1.3,13.7,1.3,13.7L468.4,247.8z"/>
<linearGradient id="XMLID_87_" gradientUnits="userSpaceOnUse" x1="-495.1945" y1="-1537.7151" x2="-478.8979" y2="-1530.9456" gradientTransform="matrix(0.3217 0.9468 -0.9468 0.3217 -803.5155 1185.3556)">
	<stop  offset="0" style="stop-color:#CBF060"/>
	<stop  offset="0.338" style="stop-color:#A3D256"/>
	<stop  offset="0.7792" style="stop-color:#74AF4B"/>
	<stop  offset="1" style="stop-color:#62A147"/>
</linearGradient>
<path id="XMLID_40_" class="st22" d="M493.6,247.7c-9.9,3.4-19.4-5.5-19.4-5.5s2.1-12.8,12-16.2c9.9-3.4,24,4,24,4
	S503.5,244.4,493.6,247.7z"/>
<linearGradient id="XMLID_88_" gradientUnits="userSpaceOnUse" x1="-497.7521" y1="-1546.7841" x2="-459.8555" y2="-1511.8025" gradientTransform="matrix(0.3217 0.9468 -0.9468 0.3217 -803.5155 1185.3556)">
	<stop  offset="0" style="stop-color:#CBF060"/>
	<stop  offset="0.338" style="stop-color:#A3D256"/>
	<stop  offset="0.7792" style="stop-color:#74AF4B"/>
	<stop  offset="1" style="stop-color:#62A147"/>
</linearGradient>
<path id="XMLID_39_" class="st23" d="M493.6,247.7c9.9-3.4,16.6-17.7,16.6-17.7l-36,12.2C474.1,242.2,483.6,251.1,493.6,247.7z"/>
<linearGradient id="XMLID_89_" gradientUnits="userSpaceOnUse" x1="424.2689" y1="-215.6661" x2="440.6044" y2="-208.8804" gradientTransform="matrix(0.965 0.2622 -0.2622 0.965 -39.414 296.8525)">
	<stop  offset="0" style="stop-color:#CBF060"/>
	<stop  offset="0.338" style="stop-color:#A3D256"/>
	<stop  offset="0.7792" style="stop-color:#74AF4B"/>
	<stop  offset="1" style="stop-color:#62A147"/>
</linearGradient>
<path id="XMLID_38_" class="st24" d="M448.4,214.1c-2.8,10.1-15.5,13-15.5,13s-9.5-8.9-6.8-19c2.8-10.1,16.7-17.6,16.7-17.6
	S451.1,204,448.4,214.1z"/>
<linearGradient id="XMLID_90_" gradientUnits="userSpaceOnUse" x1="421.794" y1="-224.6761" x2="459.6053" y2="-189.7733" gradientTransform="matrix(0.965 0.2622 -0.2622 0.965 -39.414 296.8525)">
	<stop  offset="0" style="stop-color:#CBF061"/>
	<stop  offset="0.3393" style="stop-color:#A3D257"/>
	<stop  offset="0.7796" style="stop-color:#74AF4B"/>
	<stop  offset="1" style="stop-color:#62A147"/>
</linearGradient>
<path id="XMLID_37_" class="st25" d="M448.4,214.1c2.8-10.1-5.5-23.6-5.5-23.6l-10,36.5C432.9,227,445.6,224.2,448.4,214.1z"/>
<linearGradient id="XMLID_91_" gradientUnits="userSpaceOnUse" x1="-1240.6949" y1="1766.8419" x2="-1224.3755" y2="1773.6211" gradientTransform="matrix(0.1253 -0.9921 0.9921 0.1253 -1188.2957 -1200.8901)">
	<stop  offset="0" style="stop-color:#CBF060"/>
	<stop  offset="0.338" style="stop-color:#A3D256"/>
	<stop  offset="0.7792" style="stop-color:#74AF4B"/>
	<stop  offset="1" style="stop-color:#62A147"/>
</linearGradient>
<path id="XMLID_36_" class="st26" d="M420.1,227.9c10.4,1.3,15,13.5,15,13.5s-7.5,10.6-17.9,9.3c-10.4-1.3-19.8-14-19.8-14
	S409.6,226.6,420.1,227.9z"/>
<linearGradient id="XMLID_92_" gradientUnits="userSpaceOnUse" x1="-1243.2736" y1="1757.7451" x2="-1205.2904" y2="1792.8065" gradientTransform="matrix(0.1253 -0.9921 0.9921 0.1253 -1188.2957 -1200.8901)">
	<stop  offset="0" style="stop-color:#CBF060"/>
	<stop  offset="0.338" style="stop-color:#A3D256"/>
	<stop  offset="0.7792" style="stop-color:#74AF4B"/>
	<stop  offset="1" style="stop-color:#62A147"/>
</linearGradient>
<path id="XMLID_35_" class="st27" d="M420.1,227.9c-10.4-1.3-22.7,8.7-22.7,8.7l37.7,4.7C435.1,241.3,430.5,229.2,420.1,227.9z"/>
<linearGradient id="XMLID_93_" gradientUnits="userSpaceOnUse" x1="-516.5302" y1="-1559.0402" x2="-503.436" y2="-1553.601" gradientTransform="matrix(0.3217 0.9468 -0.9468 0.3217 -803.5155 1185.3556)">
	<stop  offset="0" style="stop-color:#CBF060"/>
	<stop  offset="0.338" style="stop-color:#A3D256"/>
	<stop  offset="0.7792" style="stop-color:#74AF4B"/>
	<stop  offset="1" style="stop-color:#62A147"/>
</linearGradient>
<path id="XMLID_34_" class="st28" d="M506.8,215.6c-8,2.7-15.6-4.4-15.6-4.4s1.7-10.3,9.7-13c8-2.7,19.3,3.2,19.3,3.2
	S514.8,212.9,506.8,215.6z"/>
<linearGradient id="XMLID_94_" gradientUnits="userSpaceOnUse" x1="-518.5851" y1="-1566.327" x2="-488.1361" y2="-1538.2202" gradientTransform="matrix(0.3217 0.9468 -0.9468 0.3217 -803.5155 1185.3556)">
	<stop  offset="0" style="stop-color:#CBF060"/>
	<stop  offset="0.338" style="stop-color:#A3D256"/>
	<stop  offset="0.7792" style="stop-color:#74AF4B"/>
	<stop  offset="1" style="stop-color:#62A147"/>
</linearGradient>
<path id="XMLID_33_" class="st29" d="M506.8,215.6c8-2.7,13.3-14.2,13.3-14.2l-28.9,9.8C491.2,211.1,498.8,218.3,506.8,215.6z"/>
<linearGradient id="XMLID_95_" gradientUnits="userSpaceOnUse" x1="-846.5826" y1="1703.401" x2="-833.4557" y2="1708.8538" gradientTransform="matrix(0.3543 -0.9351 0.9351 0.3543 -912.207 -1202.8385)">
	<stop  offset="0" style="stop-color:#CBF060"/>
	<stop  offset="0.338" style="stop-color:#A3D256"/>
	<stop  offset="0.7792" style="stop-color:#74AF4B"/>
	<stop  offset="1" style="stop-color:#62A147"/>
</linearGradient>
<path id="XMLID_32_" class="st30" d="M393.7,176c7.9,3,9.2,13.3,9.2,13.3s-7.9,6.9-15.8,3.9c-7.9-3-12.8-14.7-12.8-14.7
	S385.8,173,393.7,176z"/>
<linearGradient id="XMLID_96_" gradientUnits="userSpaceOnUse" x1="-848.6514" y1="1696.089" x2="-818.1105" y2="1724.2806" gradientTransform="matrix(0.3543 -0.9351 0.9351 0.3543 -912.207 -1202.8385)">
	<stop  offset="0" style="stop-color:#CBF060"/>
	<stop  offset="0.338" style="stop-color:#A3D256"/>
	<stop  offset="0.7792" style="stop-color:#74AF4B"/>
	<stop  offset="1" style="stop-color:#62A147"/>
</linearGradient>
<path id="XMLID_31_" class="st31" d="M393.7,176c-7.9-3-19.4,2.6-19.4,2.6l28.6,10.8C402.9,189.3,401.6,179,393.7,176z"/>
<linearGradient id="XMLID_97_" gradientUnits="userSpaceOnUse" x1="-423.6487" y1="1517.3037" x2="-413.3183" y2="1521.595" gradientTransform="matrix(0.5689 -0.8224 0.8224 0.5689 -637.7718 -1076.6472)">
	<stop  offset="0" style="stop-color:#CBF060"/>
	<stop  offset="0.338" style="stop-color:#A3D256"/>
	<stop  offset="0.7792" style="stop-color:#74AF4B"/>
	<stop  offset="1" style="stop-color:#62A147"/>
</linearGradient>
<path id="XMLID_30_" class="st32" d="M382.1,124.9c5.5,3.8,4.5,11.9,4.5,11.9s-7.3,3.8-12.8,0c-5.5-3.8-7-13.6-7-13.6
	S376.6,121.2,382.1,124.9z"/>
<linearGradient id="XMLID_98_" gradientUnits="userSpaceOnUse" x1="-425.2663" y1="1511.559" x2="-401.2531" y2="1533.7251" gradientTransform="matrix(0.5689 -0.8224 0.8224 0.5689 -637.7718 -1076.6472)">
	<stop  offset="0" style="stop-color:#CBF060"/>
	<stop  offset="0.338" style="stop-color:#A3D256"/>
	<stop  offset="0.7792" style="stop-color:#74AF4B"/>
	<stop  offset="1" style="stop-color:#62A147"/>
</linearGradient>
<path id="XMLID_29_" class="st33" d="M382.1,124.9c-5.5-3.8-15.3-1.7-15.3-1.7l19.8,13.6C386.5,136.8,387.5,128.7,382.1,124.9z"/>
<linearGradient id="XMLID_99_" gradientUnits="userSpaceOnUse" x1="42.3455" y1="1196.9436" x2="51.5063" y2="1200.7489" gradientTransform="matrix(0.8055 -0.5927 0.5927 0.8055 -328.0414 -814.3891)">
	<stop  offset="0" style="stop-color:#CBF060"/>
	<stop  offset="0.338" style="stop-color:#A3D256"/>
	<stop  offset="0.7792" style="stop-color:#74AF4B"/>
	<stop  offset="1" style="stop-color:#62A147"/>
</linearGradient>
<path id="XMLID_28_" class="st34" d="M429.3,120c3.5,4.7,0.3,11.3,0.3,11.3s-7.2,1.1-10.7-3.7c-3.5-4.7-1.9-13.4-1.9-13.4
	S425.8,115.3,429.3,120z"/>
<linearGradient id="XMLID_100_" gradientUnits="userSpaceOnUse" x1="40.9298" y1="1191.8668" x2="62.1859" y2="1211.4878" gradientTransform="matrix(0.8055 -0.5927 0.5927 0.8055 -328.0414 -814.3891)">
	<stop  offset="0" style="stop-color:#CBF060"/>
	<stop  offset="0.338" style="stop-color:#A3D256"/>
	<stop  offset="0.7792" style="stop-color:#74AF4B"/>
	<stop  offset="1" style="stop-color:#62A147"/>
</linearGradient>
<path id="XMLID_27_" class="st35" d="M429.3,120c-3.5-4.7-12.3-5.8-12.3-5.8l12.6,17.1C429.6,131.3,432.8,124.7,429.3,120z"/>
<linearGradient id="XMLID_101_" gradientUnits="userSpaceOnUse" x1="55.647" y1="1144.8303" x2="64.8084" y2="1148.636" gradientTransform="matrix(0.8055 -0.5927 0.5927 0.8055 -328.0414 -814.3891)">
	<stop  offset="0" style="stop-color:#CBF060"/>
	<stop  offset="0.338" style="stop-color:#A3D256"/>
	<stop  offset="0.7792" style="stop-color:#74AF4B"/>
	<stop  offset="1" style="stop-color:#62A147"/>
</linearGradient>
<path id="XMLID_26_" class="st36" d="M409.1,70.1c3.5,4.7,0.3,11.3,0.3,11.3s-7.2,1.1-10.7-3.7c-3.5-4.7-1.9-13.4-1.9-13.4
	S405.6,65.4,409.1,70.1z"/>
<linearGradient id="XMLID_102_" gradientUnits="userSpaceOnUse" x1="54.2323" y1="1139.7539" x2="75.4883" y2="1159.3749" gradientTransform="matrix(0.8055 -0.5927 0.5927 0.8055 -328.0414 -814.3891)">
	<stop  offset="0" style="stop-color:#CBF060"/>
	<stop  offset="0.338" style="stop-color:#A3D256"/>
	<stop  offset="0.7792" style="stop-color:#74AF4B"/>
	<stop  offset="1" style="stop-color:#62A147"/>
</linearGradient>
<path id="XMLID_25_" class="st37" d="M409.1,70.1c-3.5-4.7-12.3-5.8-12.3-5.8l12.6,17.1C409.4,81.4,412.6,74.9,409.1,70.1z"/>
<linearGradient id="XMLID_103_" gradientUnits="userSpaceOnUse" x1="155.1839" y1="1008.8521" x2="168.3373" y2="1014.316" gradientTransform="matrix(0.8781 -0.4784 0.4784 0.8781 -227.4964 -678.8353)">
	<stop  offset="0" style="stop-color:#CBF060"/>
	<stop  offset="0.338" style="stop-color:#A3D256"/>
	<stop  offset="0.7792" style="stop-color:#74AF4B"/>
	<stop  offset="1" style="stop-color:#62A147"/>
</linearGradient>
<path id="XMLID_24_" class="st38" d="M411.9,128.9c4,7.4-1.7,16.1-1.7,16.1s-10.5,0.1-14.5-7.3c-4-7.4-0.1-19.4-0.1-19.4
	S407.9,121.5,411.9,128.9z"/>
<linearGradient id="XMLID_104_" gradientUnits="userSpaceOnUse" x1="153.1651" y1="1001.5747" x2="183.6602" y2="1029.724" gradientTransform="matrix(0.8781 -0.4784 0.4784 0.8781 -227.4964 -678.8353)">
	<stop  offset="0" style="stop-color:#CBF060"/>
	<stop  offset="0.338" style="stop-color:#A3D256"/>
	<stop  offset="0.7792" style="stop-color:#74AF4B"/>
	<stop  offset="1" style="stop-color:#62A147"/>
</linearGradient>
<path id="XMLID_23_" class="st39" d="M411.9,128.9c-4-7.4-16.4-10.6-16.4-10.6l14.6,26.7C410.2,144.9,416,136.2,411.9,128.9z"/>
<linearGradient id="XMLID_105_" gradientUnits="userSpaceOnUse" x1="397.0757" y1="541.679" x2="410.2253" y2="547.1413" gradientTransform="matrix(0.9817 -0.1902 0.1902 0.9817 -23.1905 -256.3234)">
	<stop  offset="0" style="stop-color:#CBF060"/>
	<stop  offset="0.338" style="stop-color:#A3D256"/>
	<stop  offset="0.7792" style="stop-color:#74AF4B"/>
	<stop  offset="1" style="stop-color:#62A147"/>
</linearGradient>
<path id="XMLID_22_" class="st40" d="M490.4,202.4c1.6,8.2-6.5,14.8-6.5,14.8s-10-3.1-11.6-11.3c-1.6-8.2,5.8-18.6,5.8-18.6
	S488.8,194.1,490.4,202.4z"/>
<linearGradient id="XMLID_106_" gradientUnits="userSpaceOnUse" x1="395.0789" y1="534.4225" x2="425.5239" y2="562.5257" gradientTransform="matrix(0.9817 -0.1902 0.1902 0.9817 -23.1905 -256.3234)">
	<stop  offset="0" style="stop-color:#CBF060"/>
	<stop  offset="0.338" style="stop-color:#A3D256"/>
	<stop  offset="0.7792" style="stop-color:#74AF4B"/>
	<stop  offset="1" style="stop-color:#62A147"/>
</linearGradient>
<path id="XMLID_21_" class="st41" d="M490.4,202.4c-1.6-8.2-12.4-15.1-12.4-15.1l5.8,29.9C483.9,217.2,492,210.6,490.4,202.4z"/>
<linearGradient id="XMLID_107_" gradientUnits="userSpaceOnUse" x1="-355.7981" y1="-1431.6339" x2="-342.7064" y2="-1426.1957" gradientTransform="matrix(0.4593 0.8883 -0.8883 0.4593 -674.5143 1109.2749)">
	<stop  offset="0" style="stop-color:#CBF060"/>
	<stop  offset="0.338" style="stop-color:#A3D256"/>
	<stop  offset="0.7792" style="stop-color:#74AF4B"/>
	<stop  offset="1" style="stop-color:#62A147"/>
</linearGradient>
<path id="XMLID_20_" class="st42" d="M437.3,156.2c-7.5,3.9-16.1-2.1-16.1-2.1s0.1-10.4,7.6-14.3c7.5-3.9,19.5,0.3,19.5,0.3
	S444.8,152.3,437.3,156.2z"/>
<linearGradient id="XMLID_108_" gradientUnits="userSpaceOnUse" x1="-357.8405" y1="-1438.9088" x2="-327.4193" y2="-1410.8278" gradientTransform="matrix(0.4593 0.8883 -0.8883 0.4593 -674.5143 1109.2749)">
	<stop  offset="0" style="stop-color:#CBF060"/>
	<stop  offset="0.338" style="stop-color:#A3D256"/>
	<stop  offset="0.7792" style="stop-color:#74AF4B"/>
	<stop  offset="1" style="stop-color:#62A147"/>
</linearGradient>
<path id="XMLID_19_" class="st43" d="M437.3,156.2c7.5-3.9,11-16,11-16l-27.1,14C421.2,154.1,429.8,160,437.3,156.2z"/>
<linearGradient id="XMLID_109_" gradientUnits="userSpaceOnUse" x1="281.8022" y1="-627.0035" x2="292.1418" y2="-622.7085" gradientTransform="matrix(0.8819 0.4714 -0.4714 0.8819 -149.9963 570.8277)">
	<stop  offset="0" style="stop-color:#CBF060"/>
	<stop  offset="0.338" style="stop-color:#A3D256"/>
	<stop  offset="0.7792" style="stop-color:#74AF4B"/>
	<stop  offset="1" style="stop-color:#62A147"/>
</linearGradient>
<path id="XMLID_18_" class="st44" d="M405.6,162.5c-3.1,5.8-11.4,5.8-11.4,5.8s-4.6-6.8-1.5-12.7c3.1-5.8,12.8-8.5,12.8-8.5
	S408.7,156.7,405.6,162.5z"/>
<linearGradient id="XMLID_110_" gradientUnits="userSpaceOnUse" x1="280.2271" y1="-632.7145" x2="304.1774" y2="-610.6066" gradientTransform="matrix(0.8819 0.4714 -0.4714 0.8819 -149.9963 570.8277)">
	<stop  offset="0" style="stop-color:#CBF060"/>
	<stop  offset="0.338" style="stop-color:#A3D256"/>
	<stop  offset="0.7792" style="stop-color:#74AF4B"/>
	<stop  offset="1" style="stop-color:#62A147"/>
</linearGradient>
<path id="XMLID_17_" class="st45" d="M405.6,162.5c3.1-5.8,0-15.3,0-15.3l-11.4,21.2C394.2,168.3,402.4,168.3,405.6,162.5z"/>
<linearGradient id="XMLID_111_" gradientUnits="userSpaceOnUse" x1="289.9298" y1="-692.4493" x2="300.2691" y2="-688.1544" gradientTransform="matrix(0.8819 0.4714 -0.4714 0.8819 -149.9963 570.8277)">
	<stop  offset="0" style="stop-color:#CBF060"/>
	<stop  offset="0.338" style="stop-color:#A3D256"/>
	<stop  offset="0.7792" style="stop-color:#74AF4B"/>
	<stop  offset="1" style="stop-color:#62A147"/>
</linearGradient>
<path id="XMLID_16_" class="st46" d="M443.6,108.6c-3.1,5.8-11.4,5.8-11.4,5.8s-4.6-6.8-1.5-12.7c3.1-5.8,12.8-8.5,12.8-8.5
	S446.7,102.8,443.6,108.6z"/>
<linearGradient id="XMLID_112_" gradientUnits="userSpaceOnUse" x1="288.3543" y1="-698.1604" x2="312.3046" y2="-676.0524" gradientTransform="matrix(0.8819 0.4714 -0.4714 0.8819 -149.9963 570.8277)">
	<stop  offset="0" style="stop-color:#CBF060"/>
	<stop  offset="0.338" style="stop-color:#A3D256"/>
	<stop  offset="0.7792" style="stop-color:#74AF4B"/>
	<stop  offset="1" style="stop-color:#62A147"/>
</linearGradient>
<path id="XMLID_15_" class="st47" d="M443.6,108.6c3.1-5.8,0-15.3,0-15.3l-11.4,21.2C432.2,114.4,440.5,114.5,443.6,108.6z"/>
<linearGradient id="XMLID_113_" gradientUnits="userSpaceOnUse" x1="-10.6699" y1="-1133.0232" x2="-0.3413" y2="-1128.7327" gradientTransform="matrix(0.6976 0.7165 -0.7165 0.6976 -387.4108 880.9525)">
	<stop  offset="0" style="stop-color:#CBF060"/>
	<stop  offset="0.338" style="stop-color:#A3D256"/>
	<stop  offset="0.7792" style="stop-color:#74AF4B"/>
	<stop  offset="1" style="stop-color:#62A147"/>
</linearGradient>
<path id="XMLID_14_" class="st48" d="M424.3,97.6c-4.8,4.6-12.6,2.1-12.6,2.1s-2.3-7.9,2.5-12.5c4.8-4.6,14.8-4.2,14.8-4.2
	S429.1,93,424.3,97.6z"/>
<linearGradient id="XMLID_114_" gradientUnits="userSpaceOnUse" x1="-12.2612" y1="-1138.7446" x2="11.7001" y2="-1116.6265" gradientTransform="matrix(0.6976 0.7165 -0.7165 0.6976 -387.4108 880.9525)">
	<stop  offset="0" style="stop-color:#CBF060"/>
	<stop  offset="0.338" style="stop-color:#A3D256"/>
	<stop  offset="0.7792" style="stop-color:#74AF4B"/>
	<stop  offset="1" style="stop-color:#62A147"/>
</linearGradient>
<path id="XMLID_13_" class="st49" d="M424.3,97.6c4.8-4.6,4.6-14.6,4.6-14.6l-17.3,16.7C411.7,99.7,419.5,102.2,424.3,97.6z"/>
<linearGradient id="XMLID_115_" gradientUnits="userSpaceOnUse" x1="221.0981" y1="919.603" x2="231.6571" y2="923.9892" gradientTransform="matrix(0.9029 -0.4299 0.4299 0.9029 -107.4703 -569.136)">
	<stop  offset="0" style="stop-color:#CBF060"/>
	<stop  offset="0.338" style="stop-color:#A3D256"/>
	<stop  offset="0.7792" style="stop-color:#74AF4B"/>
	<stop  offset="1" style="stop-color:#62A147"/>
</linearGradient>
<path id="XMLID_12_" class="st50" d="M504.1,163.9c2.9,6.1-2.1,12.8-2.1,12.8s-8.4-0.4-11.3-6.5c-2.9-6.1,0.8-15.6,0.8-15.6
	S501.2,157.8,504.1,163.9z"/>
<linearGradient id="XMLID_116_" gradientUnits="userSpaceOnUse" x1="219.4809" y1="913.7636" x2="243.9557" y2="936.3557" gradientTransform="matrix(0.9029 -0.4299 0.4299 0.9029 -107.4703 -569.136)">
	<stop  offset="0" style="stop-color:#CBF060"/>
	<stop  offset="0.338" style="stop-color:#A3D256"/>
	<stop  offset="0.7792" style="stop-color:#74AF4B"/>
	<stop  offset="1" style="stop-color:#62A147"/>
</linearGradient>
<path id="XMLID_11_" class="st51" d="M504.1,163.9c-2.9-6.1-12.6-9.2-12.6-9.2l10.5,22C502,176.7,507,169.9,504.1,163.9z"/>
<linearGradient id="XMLID_117_" gradientUnits="userSpaceOnUse" x1="-264.6477" y1="-1389.9872" x2="-254.1376" y2="-1385.6213" gradientTransform="matrix(0.4867 0.8736 -0.8736 0.4867 -573.8971 1081.8499)">
	<stop  offset="0" style="stop-color:#CBF060"/>
	<stop  offset="0.338" style="stop-color:#A3D256"/>
	<stop  offset="0.7792" style="stop-color:#74AF4B"/>
	<stop  offset="1" style="stop-color:#62A147"/>
</linearGradient>
<path id="XMLID_10_" class="st52" d="M514.9,190.5c-5.9,3.3-13-1.3-13-1.3s-0.2-8.4,5.7-11.7c5.9-3.3,15.7-0.2,15.7-0.2
	S520.8,187.2,514.9,190.5z"/>
<linearGradient id="XMLID_118_" gradientUnits="userSpaceOnUse" x1="-266.2879" y1="-1395.8274" x2="-241.8667" y2="-1373.2848" gradientTransform="matrix(0.4867 0.8736 -0.8736 0.4867 -573.8971 1081.8499)">
	<stop  offset="0" style="stop-color:#CBF060"/>
	<stop  offset="0.338" style="stop-color:#A3D256"/>
	<stop  offset="0.7792" style="stop-color:#74AF4B"/>
	<stop  offset="1" style="stop-color:#62A147"/>
</linearGradient>
<path id="XMLID_9_" class="st53" d="M514.9,190.5c5.9-3.3,8.4-13.2,8.4-13.2l-21.4,11.9C501.9,189.3,509,193.8,514.9,190.5z"/>
<linearGradient id="XMLID_119_" gradientUnits="userSpaceOnUse" x1="472.5681" y1="349.8544" x2="457.1337" y2="404.4873">
	<stop  offset="0" style="stop-color:#8C6F5A"/>
	<stop  offset="1" style="stop-color:#5C3D3B"/>
</linearGradient>
<path id="XMLID_8_" class="st54" d="M542.3,405H401.9c0,0,0,0,0,0c-9.8-3-18.6-7-26.7-12.2c0.8-0.7,1.5-1.4,2.1-2.1
	c0.3-0.3,0.5-0.6,0.9-1c1.4-1.5,3.4-3.6,5.6-5.8c4.5-4.5,9.7-9.4,12-11.2c3.6-2.9,13.4-6.6,17.7-10.7c1.2-1.1,2.5-2.4,3.9-3.5
	c0,0,0,0,0,0c3.7-3,8-5.8,13.2-7c6.4-1.5,12.9-7.4,20-6.6h0c0.9,0.1,1.8,0.3,2.7,0.6c3.1,1.1,6.2,3.2,9.2,5.4l0,0
	c4.7,3.5,9.2,7.5,13.5,9.2c3.4,1.4,8.1,2.7,12.6,4.4c0,0,0,0,0.1,0h0c2.4,0.8,4.8,1.8,6.9,2.9c2.3,1.1,4.3,2.4,5.8,3.8
	c5.6,5.4,15,16.1,21,18.5c0.1,0,0.1,0.1,0.2,0.1c1.7,0.6,3.5,1.6,5.4,2.8c0,0,0,0,0,0c3.7,2.3,7.6,5.3,10.6,8.3
	c1.1,1.1,2,2.1,2.8,3.1C541.6,404.4,541.9,404.7,542.3,405L542.3,405z"/>
<linearGradient id="XMLID_120_" gradientUnits="userSpaceOnUse" x1="602.0958" y1="309.6004" x2="701.0112" y2="344.4048" gradientTransform="matrix(0.9885 0.151 -0.151 0.9885 29.9312 -76.651)">
	<stop  offset="0" style="stop-color:#FFD8C2"/>
	<stop  offset="1" style="stop-color:#FFB49C"/>
</linearGradient>
<path id="XMLID_7_" class="st55" d="M649.6,291.5c0,0-18.2,22.1-26.3,28.6c-8.1,6.5-62,28-66.3,29.2l2,27.4c0,0,43.2-7.9,62.6-14.2
	c19.4-6.3,31.3-11.5,36-16.2c4.6-4.7,21.2-23.1,21.2-23.1L649.6,291.5z"/>
<linearGradient id="XMLID_121_" gradientUnits="userSpaceOnUse" x1="663.0781" y1="224.5364" x2="721.0046" y2="265.5962" gradientTransform="matrix(0.9885 0.151 -0.151 0.9885 29.9312 -76.651)">
	<stop  offset="0" style="stop-color:#444F61"/>
	<stop  offset="1" style="stop-color:#262C36"/>
</linearGradient>
<path id="XMLID_6_" class="st56" d="M685.1,235.4c-8.7,5.7-42.1,53.5-42.4,55.1c-0.2,1.6,6.1,12.7,17.4,25.2
	c11.3,12.6,20.3,18.4,22,17.3c1.7-1.1,30.1-22.2,33.2-33.5c3-11.3,6.6-36.3,0.3-51.1C709.2,233.7,695.6,228.4,685.1,235.4z"/>
<linearGradient id="XMLID_122_" gradientUnits="userSpaceOnUse" x1="526.0336" y1="351.6909" x2="546.3777" y2="354.085" gradientTransform="matrix(0.9885 0.151 -0.151 0.9885 29.9312 -76.651)">
	<stop  offset="5.376340e-003" style="stop-color:#FED905"/>
	<stop  offset="1" style="stop-color:#FEA305"/>
</linearGradient>
<path id="XMLID_5_" class="st57" d="M536.7,352.6c0,0-9.2-3.2-12.6-3.7c-3.4-0.5-7-0.7-10.2,1c-3.2,1.7-6.9,1.7-9.3,2.2
	c-2.4,0.5-8.4,2.2-10.4,2.2c-2,0-1,4.2,3.3,5.5c4.3,1.3,7.2-0.4,8.8-0.5s4.9,1.5,8.5,2.1C518.5,362,535.7,359.6,536.7,352.6z"/>
<path id="XMLID_4_" class="st58" d="M474.9,379.8c0,0,3.4,3.9,6.4,5.9s7.8,2.4,9.3,3.1c1.5,0.7,4.1,4.1,5.7,5.1c1.6,1,3.4,2.8,7.2,3
	c3.9,0.2,15.2,0.4,15.2,0.4l-13.8-20.1L474.9,379.8z"/>
<linearGradient id="XMLID_123_" gradientUnits="userSpaceOnUse" x1="528.8156" y1="363.3593" x2="564.6199" y2="381.0481" gradientTransform="matrix(0.9885 0.151 -0.151 0.9885 29.9312 -76.651)">
	<stop  offset="5.376340e-003" style="stop-color:#FED905"/>
	<stop  offset="1" style="stop-color:#FEA305"/>
</linearGradient>
<path id="XMLID_3_" class="st59" d="M537.5,353.2c-0.7-1.3-3.8-1.2-8.1-0.2c-4.3,1-17.8,8.1-23.4,10.6c-5.6,2.4-14.3,7.3-17.2,8.1
	c-2.9,0.9-5.3,0.3-8.3,0.9c-3,0.6-7.7,1.8-9.7,3.5c-2,1.7-2.5,2.7-1.2,3.7c1.3,1,3.2,2,6.8,1.7c3.6-0.2,7.1-0.1,10.8,0.2
	c3.7,0.3,5.1,0.6,7.8-0.1c2.7-0.6,8-1.6,9.9-1.4c1.9,0.2,6.6,7.3,9,11.3c2.4,4,3.3,5.6,5.1,5.8c1.8,0.3,16.3-3.1,26.2-12.7
	C545.1,384.6,541.5,361,537.5,353.2z"/>
<linearGradient id="XMLID_124_" gradientUnits="userSpaceOnUse" x1="584.5963" y1="322.8644" x2="584.5963" y2="391.5722" gradientTransform="matrix(0.9885 0.151 -0.151 0.9885 29.9312 -76.651)">
	<stop  offset="5.376340e-003" style="stop-color:#FED905"/>
	<stop  offset="1" style="stop-color:#FEA305"/>
</linearGradient>
<path id="XMLID_2_" class="st60" d="M541.4,350c-2.3,0.6-4.4,0.8-4.6,2.7c-0.2,1.9,3.3,10.5,4.8,18.1c1.5,7.6,1.8,10.7,2.2,12.7
	c0.4,2,0.7,2.8,3.7,2.4c3-0.4,8.3-1.1,13.7-2c5.4-0.9,9.3-1.3,9.5-4.2s-2.5-17.6-3.9-24.5c-1.4-6.9-4.1-12.6-6.3-13
	C558.2,341.7,549.8,347.8,541.4,350z"/>
<linearGradient id="XMLID_125_" gradientUnits="userSpaceOnUse" x1="363.3395" y1="374.3168" x2="383.0621" y2="407.7994">
	<stop  offset="0" style="stop-color:#8C6F5A"/>
	<stop  offset="1" style="stop-color:#5C3D3B"/>
</linearGradient>
<path id="XMLID_66_" class="st61" d="M429.4,405h-95.9c3.9-2.6,7.6-5,10.9-6.6c8.8-4.6,15.1-10.7,20.6-15.3c3.5-2.9,6.7-5.1,10-5.9
	c4-1,7.8-2.3,11.6-2.4c4.5-0.2,9,1.2,14,6.5c0.5,0.6,1.1,1.2,1.8,1.8C408.6,389,419.5,396.6,429.4,405z"/>
</svg>
