<?xml version="1.0" encoding="utf-8"?>
<!-- Generator: Adobe Illustrator 19.0.0, SVG Export Plug-In . SVG Version: 6.00 Build 0)  -->
<svg version="1.1" id="Warstwa_1" xmlns="http://www.w3.org/2000/svg" xmlns:xlink="http://www.w3.org/1999/xlink" x="0px" y="0px"
	 viewBox="0 0 960 560" style="enable-background:new 0 0 960 560;" xml:space="preserve">
<style type="text/css">
	.st0{fill:url(#XMLID_9_);}
	.st1{fill:#FFFFFF;}
	.st2{font-family:'OpenSans-Bold';}
	.st3{font-size:55.9307px;}
</style>
<g id="XMLID_7_">
	<g id="XMLID_5_">
		<linearGradient id="XMLID_9_" gradientUnits="userSpaceOnUse" x1="248.8875" y1="254.8253" x2="760.1247" y2="254.8253">
			<stop  offset="0" style="stop-color:#00AB69"/>
			<stop  offset="1" style="stop-color:#007E79"/>
		</linearGradient>
		<path id="XMLID_3_" class="st0" d="M760.1,276.8c0,27.2-22.2,49.4-49.4,49.4H298.3c-27.2,0-49.4-22.2-49.4-49.4v-43.9
			c0-27.2,22.2-49.4,49.4-49.4h412.4c27.2,0,49.4,22.2,49.4,49.4V276.8z"/>
		<g id="XMLID_1_">
			<text id="XMLID_22_" transform="matrix(1 0 0 1 307.5873 271.0896)" class="st1 st2 st3">Dołącz do nas</text>
		</g>
		<g id="XMLID_2_">
			<path id="XMLID_4_" class="st1" d="M671.7,280.9c-0.9,0-1.7-0.3-2.4-1c-1.3-1.3-1.3-3.5,0-4.8l25.3-25.3l-25.3-25.3
				c-1.3-1.3-1.3-3.5,0-4.8c1.3-1.3,3.5-1.3,4.8,0l27.7,27.7c0.6,0.6,1,1.5,1,2.4s-0.4,1.8-1,2.4L674,279.9
				C673.4,280.5,672.5,280.9,671.7,280.9z"/>
		</g>
	</g>
</g>
</svg>
