<?xml version="1.0" encoding="utf-8"?>
<!-- Generator: Adobe Illustrator 19.0.0, SVG Export Plug-In . SVG Version: 6.00 Build 0)  -->
<svg version="1.1" id="Warstwa_1" xmlns="http://www.w3.org/2000/svg" xmlns:xlink="http://www.w3.org/1999/xlink" x="0px" y="0px"
	 viewBox="0 0 1500 300" style="enable-background:new 0 0 1500 300;" xml:space="preserve">
<g id="XMLID_1_">
	<path id="XMLID_191_" d="M426.6,285.8c-4.1,0-7.9,0.9-7.9-5.1c0-43.8,37.9-80.9,37.9-86.1c0-3.5-5.2-3.6-7.1-3.6
		c-13.5,0-16.7,4.7-19.5,4.7c-3.3,0-6.7-21.6-6.7-23.8c0-3.1,4.9-2.4,6.5-2.4h47.8c4.4,0,7-0.7,7,5.6c0,2.2-0.2,18-1.9,21.6
		c-5.2,11.3-35.7,45.4-35.7,63.6c0,3.6,1.9,4,6.5,4c18.6,0,20.8-5.6,23.3-5.6c2.9,0,7,21.6,7,24.5c0,2.7-4.8,2.5-6.2,2.5H426.6z"/>
	<path id="XMLID_44_" d="M78.2,195.2c0,5.3-1,10.7-3.1,16.2c-2,5.5-5.1,10.8-9.1,15.7c-4,4.9-9,9.4-14.9,13.3
		c-5.9,3.9-12.8,6.9-20.5,8.9c1,2.4,2.4,4.7,4.2,6.9c1.7,2.2,3.8,4,6.2,5.6c2.4,1.6,5.2,2.8,8.4,3.7c3.2,0.9,6.9,1.4,11.1,1.4
		c6.3,0,11.7-1,16.2-3.1c4.5-2.1,8.3-4.8,11.4-8.3c3.1-3.4,5.6-7.3,7.5-11.5c1.9-4.3,3.3-8.6,4.2-12.9c0.7-3.1,2.2-5.2,4.5-6.3
		c2.3-1.1,4.6-1.3,6.9-0.8c2.4,0.6,4.4,1.7,6.1,3.5c1.7,1.8,2.4,4,2.1,6.5c-0.4,2.9-1.1,6.2-2.1,9.8c-1,3.7-2.5,7.4-4.5,11.2
		c-2,3.8-4.5,7.5-7.6,11.2c-3.1,3.7-6.9,6.9-11.4,9.8c-4.5,2.9-9.8,5.2-15.9,6.9c-6.1,1.8-13,2.6-20.9,2.6c-7.3,0-14.4-1.3-21.3-3.8
		c-6.9-2.5-12.9-6.2-18.2-11c-5.3-4.8-9.5-10.6-12.7-17.6c-3.2-7-4.8-14.9-4.8-23.8c0-9,1.4-17.3,4.2-25c2.8-7.7,6.5-14.4,11.2-20
		c4.6-5.6,9.8-10.1,15.7-13.2c5.9-3.2,11.9-4.8,18.1-4.8c4.5,0,8.6,0.7,12.2,2.1c3.6,1.4,6.7,3.4,9.2,5.9c2.5,2.5,4.4,5.6,5.7,9.1
		C77.6,187,78.2,190.9,78.2,195.2z M26.4,228.7c0,0.8,0.1,1.7,0.2,2.5c0.1,0.8,0.2,1.7,0.2,2.6c4-1.7,7.6-3.8,10.8-6.4
		c3.2-2.6,6-5.5,8.3-8.9c2.3-3.3,4.1-7,5.3-10.9c1.3-3.9,1.9-8,1.9-12.3c0-3.1-0.6-5.6-1.8-7.4c-1.2-1.8-2.9-2.6-4.9-2.6
		c-2.6,0-4.9,0.8-7,2.4c-2,1.6-3.8,3.6-5.3,6.2c-1.5,2.5-2.8,5.4-3.8,8.6c-1,3.2-1.8,6.4-2.4,9.6c-0.6,3.2-1,6.3-1.3,9.2
		C26.3,224.4,26.3,226.8,26.4,228.7z"/>
	<path id="XMLID_42_" d="M190.7,191.7c1.2,0,2-0.2,2.6-0.7c0.6-0.5,1.1-0.7,1.6-0.7c1.2,0,2,0.6,2.4,1.8c0.5,1.2,0.7,2.6,0.7,4.2
		c0,1.5-0.2,3.3-0.7,5.3c-0.5,2.1-1.2,4.1-2,6c-0.9,1.9-1.9,3.5-3.1,4.9c-1.2,1.3-2.5,2-4,2h-66.3c-1.6,0-2.8-0.8-3.8-2.4
		c-0.9-1.6-1.4-3.4-1.4-5.5c0-1.3,0.2-2.8,0.6-4.5c0.4-1.7,0.9-3.3,1.7-4.9c0.8-1.5,1.7-2.8,2.8-3.9c1.1-1.1,2.4-1.6,4-1.6H190.7z"
		/>
	<path id="XMLID_40_" d="M315.3,242.9c0,7.9,1.4,13.8,4.2,17.8c2.8,4,7.4,6,13.9,6c4.1,0,8.2-1.2,12.4-3.5c4.2-2.3,8.3-5.6,12.3-9.9
		c4-4.3,7.7-9.5,11.1-15.5c3.4-6.1,6.4-12.8,9-20.3c2.6-7.4,4.7-15.5,6.1-24.2c1.5-8.7,2.2-17.8,2.2-27.2c0-9.5-1.2-18.5-3.5-27
		c-2.4-8.5-6-15.9-11-22.3c-5-6.3-11.3-11.4-19-15.1c-7.7-3.7-16.9-5.5-27.6-5.5c-8.9,0-16.8,0.9-23.6,2.6
		c-6.8,1.8-12.7,4.2-17.7,7.3c-5,3.1-9.2,6.7-12.6,10.9c-3.4,4.2-6.1,8.6-8.2,13.4c-2,4.8-3.5,9.7-4.3,14.8
		c-0.8,5.1-1.3,10.2-1.3,15.2c0,6.8,0.8,12.9,2.4,18.3c1.6,5.4,3.5,9.9,5.5,13.7c2,3.7,4,6.6,5.8,8.7c1.8,2,2.9,3.2,3.2,3.5
		c1.8-0.5,3-0.3,3.8,0.6c0.7,0.8,1.1,1.9,1.1,3.3c0,1.9-0.4,3.8-1.3,5.8c-0.9,2-2.1,3.8-3.5,5.4c-1.5,1.6-3.1,3-4.9,4
		c-1.8,1.1-3.7,1.6-5.6,1.6c-0.8,0-1.7-0.1-2.4-0.3c-0.8-0.2-1.6-0.6-2.4-1.1c-0.2-0.1-1-0.8-2.4-2c-1.4-1.2-3-3-5-5.3
		c-2-2.3-4.1-5.2-6.4-8.7c-2.3-3.5-4.3-7.5-6.3-12c-1.9-4.5-3.5-9.6-4.8-15.3c-1.3-5.6-1.9-11.8-1.9-18.4c0-12.9,2.2-24.7,6.7-35.4
		c4.5-10.8,10.8-20,18.9-27.7c8.2-7.7,18-13.7,29.5-18c11.5-4.3,24.4-6.5,38.5-6.5c15,0,27.9,2.5,38.7,7.6c10.8,5,19.7,11.7,26.7,20
		c7,8.3,12.1,17.8,15.5,28.6c3.4,10.7,5,21.8,5,33.3c0,13.4-1.2,25.8-3.5,37.2c-2.4,11.4-5.6,21.7-9.6,30.9
		c-4,9.2-8.7,17.4-14.1,24.5c-5.3,7.1-11,13-17,17.8c-6,4.8-12.1,8.3-18.4,10.8c-6.3,2.4-12.4,3.6-18.2,3.6c-7.5,0-14-1-19.2-3.1
		c-5.3-2.1-9.6-5.1-12.8-9.2c-3.2-4-5.6-9-7.1-14.8c-1.5-5.9-2.2-12.6-2.2-20V132.6c0-2.7-0.2-4.6-0.6-5.8c-0.4-1.2-0.6-2.2-0.6-3.3
		c0-1.5,0.8-2.7,2.5-3.5c1.7-0.9,3.7-1.3,6-1.3c5.3,0,9.7,1.2,13,3.7c3.3,2.5,4.9,5.4,4.9,8.8V242.9z"/>
	<path id="XMLID_37_" d="M515.4,141.2c-2.6,0-5.1-0.5-7.5-1.4c-2.4-0.9-4.4-2.2-6.1-3.7c-1.7-1.6-3.1-3.4-4.2-5.5
		c-1-2.1-1.6-4.3-1.6-6.7c0-2.5,0.5-4.8,1.6-6.9c1-2.1,2.4-4,4.2-5.5c1.7-1.5,3.8-2.7,6.1-3.6c2.4-0.9,4.8-1.3,7.5-1.3
		c2.8,0,5.4,0.4,7.9,1.3c2.4,0.9,4.5,2.1,6.2,3.6c1.7,1.5,3.1,3.4,4.1,5.5c1,2.1,1.5,4.4,1.5,6.9c0,2.4-0.5,4.6-1.5,6.7
		c-1,2.1-2.4,3.9-4.1,5.5c-1.7,1.6-3.8,2.8-6.2,3.7C520.9,140.7,518.2,141.2,515.4,141.2z M522.8,254c0,0.6,0.1,1.7,0.2,3.1
		c0.1,1.4,0.4,2.9,0.9,4.4c0.5,1.5,1.4,2.8,2.5,3.9c1.2,1.1,2.8,1.7,4.9,1.7c3.1,0,5.9-1,8.2-3.1c2.4-2,4.4-4.6,6.1-7.6
		c1.7-3.1,3.2-6.4,4.3-9.9c1.2-3.6,2.1-6.9,2.8-10.1c0.6-2.9,1.6-4.9,2.9-6.2c1.3-1.3,2.7-2,4.2-2.2c1.5-0.1,3,0.2,4.6,1
		c1.5,0.8,2.9,1.9,4.1,3.3c1.2,1.3,2.1,2.8,2.7,4.5c0.6,1.7,0.7,3.2,0.2,4.7c-1.5,4.7-3.4,9.7-5.7,14.8c-2.4,5.2-5.4,9.9-9,14.3
		c-3.7,4.3-8.1,8-13.2,10.8c-5.1,2.9-11.2,4.3-18.1,4.3c-4.3,0-8.1-0.7-11.5-2.2c-3.4-1.4-6.2-3.4-8.5-5.8c-2.3-2.4-4.1-5.2-5.3-8.5
		c-1.2-3.2-1.8-6.7-1.8-10.3v-75.9c0-2.7-0.2-4.6-0.7-5.8c-0.5-1.2-0.7-2.3-0.7-3.3c0-1.4,0.8-2.5,2.5-3.4c1.7-0.9,3.7-1.3,6-1.3
		c5.3,0,9.6,1.2,12.6,3.7c3.1,2.5,4.6,5.4,4.6,8.8V254z"/>
	<path id="XMLID_35_" d="M657.9,267c3.2,0,6-1,8.4-3.1c2.4-2,4.4-4.6,6.1-7.6c1.7-3.1,3.1-6.4,4.2-9.9c1.1-3.6,2-6.9,2.7-10.1
		c0.7-3,1.8-5.1,3.2-6.5c1.4-1.3,3-2,4.6-2c1.3,0,2.5,0.3,3.8,1c1.3,0.7,2.5,1.6,3.6,2.7c1.1,1.1,2,2.4,2.7,3.7c0.7,1.4,1,2.8,1,4.2
		c0,0.2,0,0.4,0,0.7s-0.1,0.7-0.3,1.2c-1.4,4.7-3.2,9.7-5.6,14.8c-2.4,5.2-5.4,9.9-9,14.3c-3.7,4.3-8.1,8-13.3,10.8
		c-5.2,2.9-11.2,4.3-18.1,4.3c-5.7,0-10.6-1.1-14.8-3.2c-4.2-2.1-7.5-4.9-9.9-8.5c-3.3,3.2-7.2,6-11.7,8.3
		c-4.6,2.3-9.9,3.4-15.9,3.4c-6.3,0-11.8-1.1-16.6-3.3c-4.8-2.2-8.8-5.2-12-9.1c-3.2-3.8-5.7-8.4-7.3-13.6
		c-1.6-5.2-2.4-10.8-2.4-16.9c0-11.8,2.1-22.5,6.4-31.9c4.3-9.4,10-17.5,17.1-24.1c7.1-6.6,15.3-11.7,24.4-15.2
		c9.2-3.5,18.7-5.3,28.5-5.3c4.4,0,8,1.1,10.7,3.2c2.7,2.1,4.1,5,4.1,8.7c0,2.4-0.3,4.1-0.9,5.1c-0.6,1-1.7,1.5-3.2,1.5
		c-1.5,0-3-0.1-4.6-0.3c-1.6-0.2-3.2-0.3-4.9-0.3c-6.1,0-12.3,1.2-18.5,3.5c-6.3,2.4-12,6-17,10.8c-5.1,4.9-9.2,11-12.5,18.4
		c-3.3,7.4-4.9,16.3-4.9,26.6c0,7.5,1.6,13.2,4.9,17.3c3.2,4,7.7,6,13.4,6c4.4,0,8.1-1.5,11-4.4c2.9-2.9,5.3-6.4,7.1-10.3v-43.8
		c0-1.4-0.1-2.5-0.2-3.5c-0.2-0.9-0.3-1.7-0.5-2.4c-0.2-0.6-0.3-1.2-0.4-1.7c-0.1-0.5-0.2-1-0.2-1.5c0-1.5,0.8-2.7,2.4-3.5
		c1.6-0.9,3.6-1.3,5.9-1.3c5.3,0,9.6,1.2,12.7,3.7c3.1,2.5,4.7,5.4,4.7,8.8V254c0,1.6,0.2,3.1,0.6,4.6c0.4,1.5,1,2.9,1.9,4.2
		c0.8,1.2,2,2.3,3.4,3.1C654.4,266.6,656,267,657.9,267z"/>
	<path id="XMLID_17_" d="M763.8,236.6c0.6-2.8,1.6-4.8,2.9-6c1.3-1.2,2.7-1.9,4.2-2.1c1.5-0.1,3.1,0.2,4.6,1
		c1.6,0.8,2.9,1.8,4.1,3.1c1.2,1.3,2,2.8,2.6,4.4c0.6,1.6,0.7,3.2,0.2,4.8c-1.5,3.8-3.6,8.2-6.3,13.3c-2.7,5.1-6.2,9.9-10.4,14.4
		c-4.2,4.5-9.1,8.4-14.8,11.5c-5.7,3.1-12.2,4.7-19.5,4.7c-6.2,0-11.6-0.9-16.3-2.6c-4.7-1.8-8.7-4.3-11.9-7.5
		c-3.2-3.2-5.6-7.1-7.2-11.7c-1.6-4.5-2.4-9.6-2.4-15.1l-6.1,1.9c-0.6,0.2-1.3,0.3-1.9,0.5c-0.6,0.1-1.2,0.2-1.7,0.2
		c-1.4,0.2-2.5,0-3.5-0.5c-1-0.5-1.8-1.2-2.4-2c-0.6-0.8-1.1-1.8-1.4-2.8c-0.3-1.1-0.5-2.2-0.6-3.3c-0.2-2.3,0.3-4.1,1.6-5.5
		c1.3-1.3,3.3-2.5,6-3.5l10.1-3.2V119c0-5.3,0.8-10.1,2.3-14.6c1.5-4.5,3.6-8.3,6.3-11.5c2.7-3.2,5.8-5.7,9.3-7.5
		c3.6-1.8,7.3-2.7,11.3-2.7c4.7,0,8.7,0.8,11.9,2.3c3.2,1.5,5.9,3.5,8,6c2.1,2.5,3.7,5.4,4.9,8.6c1.2,3.2,2.1,6.5,2.6,9.9
		c0.5,3.4,0.8,6.7,0.9,10c0.1,3.3,0.2,6.3,0.2,8.9c0,5.4-0.4,10.9-1.3,16.6c-0.9,5.7-2,11.5-3.5,17.3c-1.4,5.8-3.1,11.5-4.9,17.1
		c-1.9,5.6-3.8,10.9-5.8,16c-2,5.1-4,9.8-6,14.1s-3.8,8-5.5,11.2l18.7-6c0.6-0.3,1.3-0.5,1.9-0.8c0.6-0.2,1.2-0.3,1.7-0.3
		c1.8-0.2,3.4,0.6,4.7,2.3c1.4,1.7,2.1,4,2.4,6.9c0.2,2.1-0.2,4.1-1.3,5.8c-1,1.8-2.7,2.7-4.9,2.9l-29.7,9.7v6.2
		c0,5.7,1.4,10.4,4.1,14.1c2.7,3.7,7.1,5.5,13,5.5c3.7,0,7.1-1,10.3-3c3.2-2,6-4.5,8.5-7.5c2.5-3,4.5-6.3,6.2-9.8
		C761.9,243.1,763.1,239.8,763.8,236.6z M718.1,193.8c1.2-1.9,2.3-4.6,3.4-7.8c1.1-3.3,2.1-6.9,3.1-10.9c1-4,1.9-8.1,2.7-12.5
		c0.8-4.3,1.6-8.6,2.2-12.8c0.6-4.2,1.1-8.1,1.5-11.7c0.4-3.7,0.6-6.8,0.6-9.4c0-9.4-0.8-16.3-2.4-20.7c-1.6-4.4-3.7-6.6-6.3-6.6
		c-0.8,0-1.6,0.4-2.2,1.1c-0.6,0.7-1.2,1.7-1.6,2.8c-0.4,1.2-0.7,2.4-0.9,3.7c-0.2,1.3-0.2,2.6-0.2,3.7V193.8z"/>
	<path id="XMLID_20_" d="M777.5,102.8c0-2-0.2-3.7-0.5-4.9c-0.4-1.2-0.7-2.2-1.1-2.8c-0.4-0.7-0.7-1.2-1.1-1.7
		c-0.4-0.4-0.5-0.9-0.5-1.3c0-0.6,0.3-1,0.9-1.4c0.6-0.4,1.5-0.7,2.5-1s2.2-0.5,3.4-0.6c1.2-0.1,2.4-0.2,3.5-0.2
		c5.3,0,9.6,1.2,12.6,3.7c3.1,2.5,4.6,5.4,4.6,8.8V190c2.6-3.1,5.4-6.1,8.2-8.9c2.9-2.8,5.9-5.3,9-7.5c3.1-2.2,6.4-3.9,9.8-5.2
		c3.4-1.3,6.9-1.9,10.6-1.9c5,0,9.3,0.9,12.9,2.6c3.6,1.7,6.5,4,8.9,6.9c2.4,2.9,4.1,6.1,5.2,9.8c1.1,3.7,1.7,7.5,1.7,11.4
		c0,5.5-1,10.6-3,15.3c-2,4.8-4.5,9.1-7.5,13c-3,3.9-6.4,7.4-10,10.4c-3.6,3.1-7,5.6-10.3,7.6c0.7,3.1,1.8,6,3.1,8.8
		c1.3,2.8,2.9,5.3,4.8,7.6c1.9,2.2,4.1,4,6.5,5.3c2.5,1.3,5.3,1.9,8.4,1.9c3.7,0,7.1-1,10.3-3c3.2-2,6-4.5,8.5-7.5
		c2.5-3,4.5-6.3,6.2-9.8c1.7-3.6,2.9-6.9,3.6-10.1c0.6-2.9,1.6-4.9,2.9-6.2c1.3-1.3,2.7-2,4.2-2.2s3.1,0.2,4.6,1
		c1.6,0.8,2.9,1.9,4.1,3.3c1.2,1.3,2,2.8,2.6,4.5c0.6,1.7,0.7,3.2,0.2,4.7c-1.5,3.8-3.6,8.2-6.3,13.3c-2.7,5.1-6.2,9.9-10.4,14.4
		c-4.2,4.5-9.1,8.4-14.8,11.5c-5.7,3.1-12.2,4.7-19.5,4.7c-6.3,0-12-1.4-17.2-4.3c-5.2-2.9-9.6-6.5-13.4-10.8
		c-3.7-4.3-6.6-9.1-8.6-14.3c-2-5.2-3-10.1-3-14.8c0-1.5,0.7-3,2.2-4.5c1.5-1.5,3.3-3.2,5.6-5c2.3-1.8,4.7-3.8,7.2-6
		c2.6-2.2,5-4.7,7.2-7.5c2.3-2.8,4.1-5.9,5.6-9.4c1.5-3.5,2.2-7.4,2.2-11.7c0-3.5-1-6.4-2.9-8.6c-1.9-2.2-4.4-3.3-7.5-3.3
		c-1.9,0-4.2,0.6-6.8,1.9c-2.7,1.2-5.5,3.4-8.4,6.5c-2.9,3.1-5.9,7.1-8.8,12.1c-2.9,5-5.7,11.3-8.2,18.8v48.8c0,1.4,0,2.8-0.1,4.2
		c-0.1,1.4-0.4,2.7-0.9,3.9c-0.6,1.2-1.5,2.1-2.7,2.9c-1.2,0.8-3,1.2-5.3,1.2c-1.6,0-3.3-0.2-5.1-0.5c-1.8-0.3-3.5-0.9-5-1.8
		c-1.5-0.9-2.8-2.1-3.8-3.7c-1-1.6-1.5-3.8-1.5-6.5V102.8z"/>
	<path id="XMLID_22_" d="M1020.7,231c0.2-1.1,0.9-2,2.1-2.8c1.2-0.7,2.6-1.2,4.2-1.5c1.6-0.3,3.2-0.3,4.9,0c1.7,0.3,3.2,0.9,4.6,1.9
		c1.3,1,2.3,2.3,2.8,4c0.6,1.7,0.5,3.9-0.2,6.6c-0.9,3.9-2.5,7.5-4.6,10.9c-2.1,3.4-4.8,6.4-8.1,8.9c-3.2,2.6-7.1,4.6-11.5,6.1
		c-4.4,1.5-9.3,2.2-14.8,2.2c-2.9,0-5.7-0.1-8.2-0.4c-2.6-0.3-5.1-0.8-7.5-1.5c-4,6.1-9.1,11-15.4,14.8c-6.3,3.7-14,5.6-23.3,5.6
		c-8.2,0-15.2-1.4-21.1-4.2c-5.9-2.8-10.7-6.7-14.6-11.5c-3.9-4.9-6.7-10.5-8.6-16.9c-1.8-6.4-2.7-13.1-2.7-20.3
		c0-10.4,1.4-19.8,4.2-28.1c2.8-8.3,6-15.3,9.7-21.1c3.7-5.8,7.3-10.2,10.9-13.2c3.6-3.1,6.3-4.6,8.1-4.6c2.1,0,4,0.8,5.7,2.4
		c1.7,1.6,3,3.5,3.8,5.7c0.8,2.2,1,4.4,0.6,6.6c-0.4,2.2-1.6,3.9-3.7,5.1c-1.3,1.8-2.8,3.8-4.5,6.1c-1.7,2.3-3.4,5.2-4.9,8.7
		c-1.5,3.5-2.8,7.7-3.8,12.7c-1,5-1.6,11-1.6,18c0,6,0.6,11.2,1.8,15.7c1.2,4.4,2.9,8.2,5,11.2c2.1,3,4.6,5.2,7.4,6.7
		c2.8,1.5,5.7,2.2,8.9,2.2c4.6,0,8.4-1,11.4-3c3-2,5.5-4.6,7.6-7.8c-7.5-5.7-13.3-13-17.2-21.8c-3.9-8.8-5.9-18.4-5.9-28.6
		c0-4.4,0.6-8.7,1.7-12.7c1.1-4,2.7-7.6,4.9-10.6c2.1-3.1,4.8-5.5,8.1-7.3c3.2-1.8,7-2.7,11.3-2.7c3.8,0,7.3,1.2,10.7,3.6
		c3.4,2.4,6.3,5.7,8.8,10c2.5,4.3,4.5,9.3,5.9,15.1c1.4,5.8,2.1,12.2,2.1,19c0,5.3-0.4,10.5-1.1,15.7c-0.7,5.2-1.9,10.2-3.5,15
		c1.2,0.4,2.2,0.6,3.2,0.6c1,0,2.1,0.1,3.2,0.1c3.5,0,6.5-0.6,9.2-1.7c2.7-1.1,4.9-2.6,6.8-4.4c1.9-1.8,3.4-4,4.6-6.5
		C1019.3,236.4,1020.1,233.7,1020.7,231z M959.2,204.6c0,6.4,1.1,12.4,3.4,18.2c2.3,5.7,5.2,10.7,8.9,15c0.6-4.5,0.9-8.9,0.9-13
		c0-4.8-0.1-9.3-0.2-13.4c-0.2-4.1-0.5-7.7-1.1-10.6c-0.6-3-1.4-5.3-2.4-7c-1-1.7-2.3-2.6-4-2.6
		C961.1,191.1,959.2,195.6,959.2,204.6z"/>
	<path id="XMLID_14_" d="M1090,183.2c0-2.7-0.2-4.6-0.6-5.8c-0.4-1.2-0.6-2.3-0.6-3.3c0-1.4,0.8-2.5,2.4-3.4
		c1.6-0.9,3.6-1.3,5.9-1.3c5.3,0,9.6,1.2,12.7,3.7c3.1,2.5,4.7,5.4,4.7,8.8v65.1c0.1,3,0.4,5.7,0.9,8.2c0.5,2.5,1.3,4.6,2.4,6.4
		c1.2,1.8,2.7,3.1,4.7,4.1c2,1,4.6,1.5,7.7,1.5c3,0,5.6-0.5,7.6-1.6c2-1.1,3.7-2.5,4.9-4.4c1.3-1.8,2.1-4,2.7-6.5
		c0.5-2.4,0.8-5,0.8-7.7v-63.7c0-2.7-0.2-4.6-0.6-5.8c-0.4-1.2-0.6-2.3-0.6-3.3c0-1.4,0.8-2.5,2.5-3.4c1.7-0.9,3.7-1.3,6-1.3
		c5.3,0,9.6,1.2,12.6,3.7c3.1,2.5,4.6,5.4,4.6,8.8v65.1c0,4.4-0.5,8.9-1.5,13.5c-1,4.6-2.9,8.7-5.7,12.5c-2.8,3.7-6.8,6.8-11.9,9.2
		c-5.1,2.4-11.8,3.6-20.1,3.6c-3.5,0-6.7-0.4-9.7-1.1c-3-0.7-5.8-1.7-8.3-3s-4.7-2.7-6.6-4.3s-3.4-3.4-4.6-5.2
		c-1,1.9-2.6,3.6-4.6,5.2c-2,1.6-4.4,3.1-7,4.3c-2.6,1.2-5.4,2.2-8.5,3c-3,0.7-6.1,1.1-9.1,1.1c-6,0-11.1-0.6-15.3-1.8
		c-4.2-1.2-7.8-2.8-10.8-4.9c-2.9-2.1-5.3-4.5-7-7.1c-1.7-2.7-3.1-5.5-4-8.3c-0.9-2.9-1.5-5.8-1.8-8.7c-0.3-3-0.4-5.7-0.4-8.2v-63.4
		c0-2.7-0.2-4.6-0.7-5.8c-0.5-1.2-0.7-2.3-0.7-3.3c0-1.4,0.8-2.5,2.5-3.4c1.7-0.9,3.7-1.3,6-1.3c5.3,0,9.6,1.2,12.6,3.7
		c3.1,2.5,4.6,5.4,4.6,8.8v65.1c0,2.5,0.2,5,0.5,7.4c0.4,2.5,1.1,4.6,2.2,6.5c1.1,1.9,2.7,3.4,4.8,4.5c2.1,1.2,4.9,1.7,8.3,1.7
		c3,0,5.6-0.5,7.6-1.6c2-1.1,3.7-2.5,4.9-4.4c1.3-1.8,2.1-4,2.7-6.5c0.5-2.4,0.8-5,0.8-7.7V183.2z"/>
	<path id="XMLID_27_" d="M1223.8,141.2c-2.6,0-5.1-0.5-7.5-1.4c-2.4-0.9-4.4-2.2-6.1-3.7c-1.7-1.6-3.1-3.4-4.2-5.5
		c-1-2.1-1.6-4.3-1.6-6.7c0-2.5,0.5-4.8,1.6-6.9c1-2.1,2.4-4,4.2-5.5c1.7-1.5,3.8-2.7,6.1-3.6c2.4-0.9,4.8-1.3,7.5-1.3
		c2.8,0,5.4,0.4,7.9,1.3c2.4,0.9,4.5,2.1,6.2,3.6c1.7,1.5,3.1,3.4,4.1,5.5c1,2.1,1.5,4.4,1.5,6.9c0,2.4-0.5,4.6-1.5,6.7
		c-1,2.1-2.4,3.9-4.1,5.5c-1.7,1.6-3.8,2.8-6.2,3.7C1229.3,140.7,1226.6,141.2,1223.8,141.2z M1231.2,254c0,0.6,0.1,1.7,0.2,3.1
		c0.1,1.4,0.4,2.9,0.9,4.4c0.5,1.5,1.4,2.8,2.5,3.9c1.2,1.1,2.8,1.7,4.9,1.7c3.1,0,5.9-1,8.2-3.1c2.4-2,4.4-4.6,6.1-7.6
		c1.7-3.1,3.2-6.4,4.3-9.9c1.2-3.6,2.1-6.9,2.8-10.1c0.6-2.9,1.6-4.9,2.9-6.2c1.3-1.3,2.7-2,4.2-2.2c1.5-0.1,3,0.2,4.6,1
		c1.5,0.8,2.9,1.9,4.1,3.3c1.2,1.3,2.1,2.8,2.7,4.5c0.6,1.7,0.7,3.2,0.2,4.7c-1.5,4.7-3.4,9.7-5.7,14.8c-2.4,5.2-5.4,9.9-9,14.3
		c-3.7,4.3-8.1,8-13.2,10.8c-5.1,2.9-11.2,4.3-18.1,4.3c-4.3,0-8.1-0.7-11.5-2.2c-3.4-1.4-6.2-3.4-8.5-5.8c-2.3-2.4-4.1-5.2-5.3-8.5
		c-1.2-3.2-1.8-6.7-1.8-10.3v-75.9c0-2.7-0.2-4.6-0.7-5.8c-0.5-1.2-0.7-2.3-0.7-3.3c0-1.4,0.8-2.5,2.5-3.4c1.7-0.9,3.7-1.3,6-1.3
		c5.3,0,9.6,1.2,12.6,3.7c3.1,2.5,4.6,5.4,4.6,8.8V254z"/>
	<path id="XMLID_30_" d="M1349.3,195.2c0,5.3-1,10.7-3.1,16.2c-2,5.5-5.1,10.8-9.1,15.7c-4,4.9-9,9.4-14.9,13.3
		c-5.9,3.9-12.8,6.9-20.5,8.9c1,2.4,2.4,4.7,4.2,6.9c1.7,2.2,3.8,4,6.2,5.6c2.4,1.6,5.2,2.8,8.4,3.7c3.2,0.9,6.9,1.4,11.1,1.4
		c6.3,0,11.7-1,16.2-3.1c4.5-2.1,8.3-4.8,11.4-8.3c3.1-3.4,5.6-7.3,7.5-11.5c1.9-4.3,3.3-8.6,4.2-12.9c0.7-3.1,2.2-5.2,4.5-6.3
		c2.3-1.1,4.6-1.3,6.9-0.8c2.4,0.6,4.4,1.7,6.1,3.5c1.7,1.8,2.4,4,2.1,6.5c-0.4,2.9-1.1,6.2-2.1,9.8c-1,3.7-2.5,7.4-4.5,11.2
		c-2,3.8-4.5,7.5-7.6,11.2c-3.1,3.7-6.9,6.9-11.4,9.8c-4.5,2.9-9.8,5.2-15.9,6.9c-6.1,1.8-13,2.6-20.9,2.6c-7.3,0-14.4-1.3-21.3-3.8
		c-6.9-2.5-12.9-6.2-18.2-11c-5.3-4.8-9.5-10.6-12.7-17.6c-3.2-7-4.8-14.9-4.8-23.8c0-9,1.4-17.3,4.2-25c2.8-7.7,6.5-14.4,11.2-20
		c4.6-5.6,9.8-10.1,15.7-13.2c5.9-3.2,11.9-4.8,18.1-4.8c4.5,0,8.6,0.7,12.2,2.1c3.6,1.4,6.7,3.4,9.2,5.9c2.5,2.5,4.4,5.6,5.7,9.1
		C1348.7,187,1349.3,190.9,1349.3,195.2z M1297.5,228.7c0,0.8,0.1,1.7,0.2,2.5c0.1,0.8,0.2,1.7,0.2,2.6c4-1.7,7.6-3.8,10.8-6.4
		c3.2-2.6,6-5.5,8.3-8.9c2.3-3.3,4.1-7,5.3-10.9c1.3-3.9,1.9-8,1.9-12.3c0-3.1-0.6-5.6-1.8-7.4c-1.2-1.8-2.9-2.6-4.9-2.6
		c-2.6,0-4.9,0.8-7,2.4c-2,1.6-3.8,3.6-5.3,6.2c-1.5,2.5-2.8,5.4-3.8,8.6c-1,3.2-1.8,6.4-2.4,9.6c-0.6,3.2-1,6.3-1.3,9.2
		C1297.4,224.4,1297.4,226.8,1297.5,228.7z"/>
	<path id="XMLID_12_" d="M1435.1,285.8c-7.1,0-14-1.2-20.7-3.5c-6.7-2.3-12.6-5.7-17.8-10.3c-5.2-4.5-9.3-10.1-12.4-16.8
		c-3.1-6.7-4.6-14.4-4.6-23.2c0-8.1,1.3-16.1,3.9-24c2.6-7.9,6.2-14.9,10.8-21c4.6-6.1,10.1-11.1,16.6-14.9
		c6.4-3.8,13.5-5.7,21.1-5.7c5.6,0,10.3,1,14.1,3c3.9,2,7,4.4,9.4,7.2c2.4,2.8,4.2,5.8,5.3,9.1c1.1,3.2,1.6,6.1,1.6,8.6
		c0,1.9-0.5,3.5-1.6,5c-1.1,1.5-2.4,2.7-4,3.7c-1.6,1-3.3,1.8-5.2,2.3c-1.9,0.5-3.6,0.7-5,0.6c-1.5-0.1-2.6-0.6-3.5-1.4
		c-0.9-0.8-1.2-2.1-0.9-3.7c-0.4-1.2-0.8-2.7-1.2-4.4c-0.4-1.8-1-3.4-1.9-5.1c-0.9-1.6-2.1-3-3.7-4.2c-1.6-1.2-3.7-1.7-6.4-1.7
		c-2.9,0-5.8,1.2-8.6,3.7c-2.8,2.5-5.2,5.8-7.4,10.1c-2.1,4.3-3.9,9.2-5.2,14.8c-1.3,5.6-2,11.7-2,18c0,5.6,0.8,10.6,2.4,15
		c1.6,4.3,3.9,8,6.8,11c2.9,3,6.4,5.2,10.5,6.7c4,1.5,8.4,2.3,13.1,2.3c6.3,0,11.8-1,16.4-3.1c4.7-2.1,8.6-4.8,11.9-8.3
		c3.2-3.4,5.9-7.3,7.9-11.5c2-4.3,3.5-8.6,4.4-12.9c0.7-3.1,2.2-5.2,4.5-6.3c2.3-1.1,4.6-1.3,6.9-0.8c2.4,0.6,4.4,1.7,6.1,3.5
		c1.7,1.8,2.4,4,2.1,6.5c-0.4,2.9-1.2,6.2-2.3,9.8c-1.1,3.7-2.7,7.4-4.8,11.2c-2.1,3.8-4.7,7.5-7.9,11.2c-3.2,3.7-7.1,6.9-11.7,9.8
		c-4.6,2.9-10,5.2-16.1,6.9C1450,284.9,1443,285.8,1435.1,285.8z"/>
</g>
</svg>
